<?xml version="1.0" encoding="UTF-8" standalone="no"?>
<svg viewBox="-30 -180 1870 1870" width="1870" height="1870">
<defs>
    <path id="prev" fill="#ffffff" stroke="#000000" stroke-width="40"
       d="m 45,-115 q -19,-19 -32,-13 -13,6 -13,32 v 1472 q 0,26 13,32 13,6 32,-13 L 755,685 q 8,-8 13,-19 v 710 q 0,26 13,32 13,6 32,-13 l 710,-710 q 8,-8 13,-19 v 678 q 0,26 19,45 19,19 45,19 h 128 q 26,0 45,-19 19,-19 19,-45 V -64 q 0,-26 -19,-45 -19,-19 -45,-19 h -128 q -26,0 -45,19 -19,19 -19,45 v 678 q -5,-10 -13,-19 L 813,-115 q -19,-19 -32,-13 -13,6 -13,32 v 710 q -5,-10 -13,-19 z"/>
</defs>
<use xlink:href="#prev" transform="rotate(180 895 640)"/>
</svg>
