<?xml version="1.0" encoding="utf-8"?>
<svg x="0px" y="0px" width="512px" height="512px" viewBox="170 195 170 120">
<path fill="#ffffff" stroke="#000000" stroke-width="4" d="M314.161,215.951h-31.598v18.377h31.598c1.672,0,3.032,1.36,3.032,3.032v53.002
c0,1.671-1.36,3.031-3.032,3.031H197.839c-1.672,0-3.032-1.36-3.032-3.031V237.36c0-1.671,1.36-3.032,3.032-3.032h22.901v13.859
c0,0.665,0.355,1.281,0.932,1.613c0.288,0.166,0.61,0.249,0.931,0.249c0.322,0,0.643-0.083,0.932-0.249l39.921-23.048
c0.577-0.333,0.932-0.948,0.932-1.614c0-0.665-0.355-1.281-0.932-1.613l-39.921-23.048c-0.576-0.333-1.287-0.333-1.863,0
c-0.576,0.333-0.932,0.948-0.932,1.613v13.859h-22.901c-11.805,0-21.409,9.604-21.409,21.409v53.002
c0,11.805,9.604,21.409,21.409,21.409h116.322c11.805,0,21.409-9.604,21.409-21.409V237.36
C335.57,225.555,325.966,215.951,314.161,215.951z"/>
</svg>
